# xmcd
#
# Track frame offsets: 
#        150
#        13965
#        32852
#        55375
#        75420
#        89785
#        113242
#        130695
#        144385
#        161959
#        175607
#
# Disc length: 2488 seconds
#
# Revision: 0
# Processed by: cddbd v1.5.2PL0 Copyright (c) Steve Scherf et al.
# Submitted via: ExactAudioCopy v1.0b1
#
DISCID=9309b60b
DTITLE=Steve Fister - Age of Great Dreams
DYEAR=1999
DGENRE=Blues
TTITLE0=Tribal Stomp
TTITLE1=True Grit
TTITLE2=Age of Great Dreams
TTITLE3=Tell Me Something Good
TTITLE4=Road to Paris
TTITLE5=White Light
TTITLE6=Weird Blues
TTITLE7=Turn It Out
TTITLE8=JB meets JB
TTITLE9=Meat and Three
TTITLE10=Rocket Town
EXTD=
EXTT0=
EXTT1=
EXTT2=
EXTT3=
EXTT4=
EXTT5=
EXTT6=
EXTT7=
EXTT8=
EXTT9=
EXTT10=
PLAYORDER=
